<mxfile host="app.diagrams.net" modified="2020-12-28T00:49:11.484Z" agent="5.0 (Windows NT 10.0; Win64; x64) AppleWebKit/537.36 (KHTML, like Gecko) Chrome/87.0.4280.88 Safari/537.36" etag="8xyGBFQQxXl39cEx3IwZ" version="14.1.2" type="github">
  <diagram id="GmFpoFqPf8v9WZ1GltCS" name="Page-1">
    <mxGraphModel dx="1422" dy="762" grid="1" gridSize="10" guides="1" tooltips="1" connect="1" arrows="1" fold="1" page="1" pageScale="1" pageWidth="827" pageHeight="1169" math="0" shadow="0">
      <root>
        <mxCell id="0" />
        <mxCell id="1" parent="0" />
        <mxCell id="IQ7JFKAoIe0-9Cnb6-Zk-1" value="" style="rounded=0;whiteSpace=wrap;html=1;" vertex="1" parent="1">
          <mxGeometry x="90" y="130" width="430" height="380" as="geometry" />
        </mxCell>
        <mxCell id="IQ7JFKAoIe0-9Cnb6-Zk-2" value="web管理系统" style="text;html=1;strokeColor=none;fillColor=none;align=center;verticalAlign=middle;whiteSpace=wrap;rounded=0;" vertex="1" parent="1">
          <mxGeometry x="255" y="140" width="100" height="20" as="geometry" />
        </mxCell>
        <mxCell id="IQ7JFKAoIe0-9Cnb6-Zk-3" value="" style="rounded=0;whiteSpace=wrap;html=1;" vertex="1" parent="1">
          <mxGeometry x="630" y="130" width="230" height="390" as="geometry" />
        </mxCell>
        <mxCell id="IQ7JFKAoIe0-9Cnb6-Zk-4" value="移动端" style="text;html=1;strokeColor=none;fillColor=none;align=center;verticalAlign=middle;whiteSpace=wrap;rounded=0;" vertex="1" parent="1">
          <mxGeometry x="735" y="140" width="40" height="20" as="geometry" />
        </mxCell>
      </root>
    </mxGraphModel>
  </diagram>
</mxfile>
